<svg xmlns="http://www.w3.org/2000/svg" viewBox="0 0 24 24">
  <!-- Dark Abyssal Background -->
  <rect width="24" height="24" fill="#090E17" />
  
  <!-- Lucide Trees Vector -->
  <g fill="none" stroke="#f8fafc" stroke-width="2" stroke-linecap="round" stroke-linejoin="round">
    <path d="M10 10v.2A3 3 0 0 1 8.9 16v0H5v0h0a3 3 0 0 1-1-5.8V10a3 3 0 0 1 6 0Z"/>
    <path d="M7 16v6"/>
    <path d="M13 19v3"/>
    <path d="M12 19h8.3a1 1 0 0 0 .7-1.7L18 14h.3a1 1 0 0 0 .7-1.7L16 9h.2a1 1 0 0 0 .8-1.7L14 3l-1.4 1.7"/>
  </g>
</svg>
